<svg width="24" height="26" viewBox="0 0 24 26" fill="none" xmlns="http://www.w3.org/2000/svg">
<line x1="12.5" y1="1.48" x2="12.5" y2="24.52" stroke="black"/>
<path d="M23.5 13C23.5 19.0671 18.3707 24.02 12 24.02C5.62929 24.02 0.5 19.0671 0.5 13C0.5 6.93286 5.62929 1.98 12 1.98C18.3707 1.98 23.5 6.93286 23.5 13Z" stroke="black"/>
<line y1="12.5" x2="24" y2="12.5" stroke="black"/>
<path d="M4.15384 4.36C10.282 9.64361 13.718 9.31374 19.8462 4.36" stroke="black"/>
<path d="M4.15384 21.64C10.282 16.3564 13.718 16.6863 19.8462 21.64" stroke="black"/>
<path d="M12.4615 1C3.6508 11.5009 5.31546 16.5426 12.4615 25" stroke="black"/>
<path d="M12.4615 1C19.9168 11.5009 18.5082 16.5426 12.4615 25" stroke="black"/>
</svg>
